# xmcd
#
# Track frame offsets:
#	150
#	16483
#	28765
#	50583
#	70230
#	86343
#	103343
#	116020
#	138860
#
# Disc length: 1961 seconds
#
# Revision: 1
# Processed by: cddbd v1.5.1PL0 Copyright (c) Steve Scherf et al.
# Submitted via: CDex 1.50Beta5
#
DISCID=7807a709
DTITLE=不明 - feel2-B
DYEAR=1900
DGENRE=Other
TTITLE0=01
TTITLE1=02
TTITLE2=03
TTITLE3=04
TTITLE4=05
TTITLE5=06
TTITLE6=07
TTITLE7=08
TTITLE8=09
EXTD=
EXTT0=
EXTT1=
EXTT2=
EXTT3=
EXTT4=
EXTT5=
EXTT6=
EXTT7=
EXTT8=
PLAYORDER=
